{
    "asset" : {
        "generator" : "Khronos glTF Blender I/O v3.4.49",
        "version" : "2.0"
    },
    "scene" : 0,
    "scenes" : [
        {
            "name" : "Scene",
            "nodes" : [
                1
            ]
        }
    ],
    "nodes" : [
        {
            "mesh" : 0,
            "name" : "ASSET"
        },
        {
            "children" : [
                0
            ],
            "name" : "ScaleFactorRootNode",
            "scale" : [
                0.012000000104308128,
                0.012000000104308128,
                0.012000000104308128
            ]
        }
    ],
    "materials" : [
        {
            "doubleSided" : true,
            "name" : "blinn1",
            "normalTexture" : {
                "index" : 0
            },
            "pbrMetallicRoughness" : {
                "baseColorTexture" : {
                    "index" : 1
                },
                "metallicRoughnessTexture" : {
                    "index" : 2
                }
            }
        },
        {
            "alphaMode" : "BLEND",
            "doubleSided" : true,
            "name" : "blinn1.001",
            "normalTexture" : {
                "index" : 3
            },
            "pbrMetallicRoughness" : {
                "baseColorTexture" : {
                    "index" : 4
                },
                "metallicRoughnessTexture" : {
                    "index" : 5
                }
            }
        }
    ],
    "meshes" : [
        {
            "name" : "Mesh",
            "primitives" : [
                {
                    "attributes" : {
                        "POSITION" : 0,
                        "TEXCOORD_0" : 1,
                        "NORMAL" : 2
                    },
                    "indices" : 3,
                    "material" : 0
                },
                {
                    "attributes" : {
                        "POSITION" : 4,
                        "TEXCOORD_0" : 5,
                        "NORMAL" : 6
                    },
                    "indices" : 7,
                    "material" : 1
                }
            ]
        }
    ],
    "textures" : [
        {
            "sampler" : 0,
            "source" : 0
        },
        {
            "sampler" : 0,
            "source" : 1
        },
        {
            "sampler" : 0,
            "source" : 2
        },
        {
            "sampler" : 0,
            "source" : 0
        },
        {
            "sampler" : 0,
            "source" : 1
        },
        {
            "sampler" : 0,
            "source" : 2
        }
    ],
    "images" : [
        {
            "mimeType" : "image/png",
            "name" : "Image_0",
            "uri" : "Image_0.png"
        },
        {
            "mimeType" : "image/png",
            "name" : "Image_1",
            "uri" : "Image_1.png"
        },
        {
            "mimeType" : "image/png",
            "name" : "Image_2",
            "uri" : "Image_2.png"
        }
    ],
    "accessors" : [
        {
            "bufferView" : 0,
            "componentType" : 5126,
            "count" : 16169,
            "max" : [
                629.9585571289062,
                422.14678955078125,
                20.533010482788086
            ],
            "min" : [
                -629.9585571289062,
                -1.8192157745361328,
                -1592.2535400390625
            ],
            "type" : "VEC3"
        },
        {
            "bufferView" : 1,
            "componentType" : 5126,
            "count" : 16169,
            "type" : "VEC2"
        },
        {
            "bufferView" : 2,
            "componentType" : 5126,
            "count" : 16169,
            "type" : "VEC3"
        },
        {
            "bufferView" : 3,
            "componentType" : 5123,
            "count" : 77334,
            "type" : "SCALAR"
        },
        {
            "bufferView" : 4,
            "componentType" : 5126,
            "count" : 3610,
            "max" : [
                577.7867431640625,
                411.8372497558594,
                13.039657592773438
            ],
            "min" : [
                -577.7867431640625,
                9.54248332977295,
                -123.92454528808594
            ],
            "type" : "VEC3"
        },
        {
            "bufferView" : 5,
            "componentType" : 5126,
            "count" : 3610,
            "type" : "VEC2"
        },
        {
            "bufferView" : 6,
            "componentType" : 5126,
            "count" : 3610,
            "type" : "VEC3"
        },
        {
            "bufferView" : 7,
            "componentType" : 5123,
            "count" : 20130,
            "type" : "SCALAR"
        }
    ],
    "bufferViews" : [
        {
            "buffer" : 0,
            "byteLength" : 194028,
            "byteOffset" : 0,
            "target" : 34962
        },
        {
            "buffer" : 0,
            "byteLength" : 129352,
            "byteOffset" : 194028,
            "target" : 34962
        },
        {
            "buffer" : 0,
            "byteLength" : 194028,
            "byteOffset" : 323380,
            "target" : 34962
        },
        {
            "buffer" : 0,
            "byteLength" : 154668,
            "byteOffset" : 517408,
            "target" : 34963
        },
        {
            "buffer" : 0,
            "byteLength" : 43320,
            "byteOffset" : 672076,
            "target" : 34962
        },
        {
            "buffer" : 0,
            "byteLength" : 28880,
            "byteOffset" : 715396,
            "target" : 34962
        },
        {
            "buffer" : 0,
            "byteLength" : 43320,
            "byteOffset" : 744276,
            "target" : 34962
        },
        {
            "buffer" : 0,
            "byteLength" : 40260,
            "byteOffset" : 787596,
            "target" : 34963
        }
    ],
    "samplers" : [
        {
            "magFilter" : 9729,
            "minFilter" : 9987
        }
    ],
    "buffers" : [
        {
            "byteLength" : 827856,
            "uri" : "scene.bin"
        }
    ]
}
